<?xml version="1.0" standalone="no"?><!DOCTYPE svg PUBLIC "-//W3C//DTD SVG 1.1//EN" "http://www.w3.org/Graphics/SVG/1.1/DTD/svg11.dtd"><svg t="1587374787096" class="icon" viewBox="0 0 1028 1024" version="1.1" xmlns="http://www.w3.org/2000/svg" p-id="999" xmlns:xlink="http://www.w3.org/1999/xlink" width="200.78125" height="200"><defs><style type="text/css"></style></defs><path d="M912.961066 1022.793281H637.355015a25.381394 25.381394 0 1 1 0-50.762788h275.606051a25.381394 25.381394 0 0 1 0 50.762788zM354.467837 1022.793281H78.861787a25.637772 25.637772 0 0 1-25.637772-25.637772l0.92296-596.078202a25.637772 25.637772 0 0 1 8.152811-18.561747l5.64031-5.127554L471.735007 10.870415a33.277828 33.277828 0 0 1 44.250795 0L922.959797 377.285455l5.896687 5.435207a25.637772 25.637772 0 0 1 8.152812 18.561747l1.128062 421.99773a25.637772 25.637772 0 0 1-25.330119 25.637772 25.637772 25.637772 0 0 1-25.637772-25.330119l-1.128062-410.870936-391.847709-353.442327-389.027555 353.237225-0.871684 559.518739h250.17338a25.381394 25.381394 0 0 1 0 50.762788z" p-id="1000"></path><path d="M637.508842 1020.383331a25.637772 25.637772 0 0 1-25.637772-25.637772v-233.508829a40.712782 40.712782 0 0 0-40.661507-40.712782H420.15181a40.712782 40.712782 0 0 0-40.712782 40.712782V994.745559a25.637772 25.637772 0 1 1-50.762789 0v-233.508829a91.526847 91.526847 0 0 1 91.424295-91.475571h151.314131a91.526847 91.526847 0 0 1 91.424296 91.475571V994.745559a25.330119 25.330119 0 0 1-25.330119 25.637772z" p-id="1001"></path><path d="M187.668492 449.789074a25.381394 25.381394 0 0 1-16.869654-44.30207L439.123761 166.132763a25.637772 25.637772 0 0 1 33.790584 37.892628L204.589422 443.379631a25.637772 25.637772 0 0 1-16.92093 6.409443z" fill="#E0C294" p-id="1002"></path></svg>