<?xml version="1.0" standalone="no"?><!DOCTYPE svg PUBLIC "-//W3C//DTD SVG 1.1//EN" "http://www.w3.org/Graphics/SVG/1.1/DTD/svg11.dtd"><svg t="1587374913492" class="icon" viewBox="0 0 1028 1024" version="1.1" xmlns="http://www.w3.org/2000/svg" p-id="1507" xmlns:xlink="http://www.w3.org/1999/xlink" width="200.78125" height="200"><defs><style type="text/css"></style></defs><path d="M677.315167 414.954919h151.722701A67.757163 67.757163 0 0 1 896.948908 482.147866v516.154679l22.619916-22.466039H194.91084a67.603286 67.603286 0 0 1-67.654579-67.346825V392.540172l-22.414746 22.414747h227.071128a22.414747 22.414747 0 1 0 0-44.829493H104.841515A22.568624 22.568624 0 0 0 82.067722 392.540172v515.949509A112.843118 112.843118 0 0 0 194.91084 1020.717291h724.657984a22.517331 22.517331 0 0 0 22.619916-22.414746V482.147866a112.843118 112.843118 0 0 0-113.150872-112.22761h-151.722701a22.414747 22.414747 0 1 0 0 44.829494z m0 0M325.398517 273.695853l202.348227-225.173312h-33.699058l202.091765 221.480264A22.773793 22.773793 0 0 0 728.351032 271.849329a22.26087 22.26087 0 0 0 1.590062-31.698658L527.644159 18.51653 510.717692 0 493.945101 18.670407l-202.348227 225.173312a22.312162 22.312162 0 0 0 1.846524 31.698657 22.825085 22.825085 0 0 0 31.955119-1.846523z m0 0" p-id="1508"></path><path d="M489.790423 67.757163L489.328792 777.078742a22.671208 22.671208 0 0 0 45.291124 0l0.410338-709.321579a22.619916 22.619916 0 0 0-45.239831 0z m0 0" p-id="1509"></path><path d="M241.484272 950.651974h-14.97736a69.962733 69.962733 0 0 1-69.860148-69.860149v-29.698257a22.158285 22.158285 0 1 1 44.265278 0v29.698257a25.646163 25.646163 0 0 0 25.646163 25.646163h14.977359a22.158285 22.158285 0 1 1 0 44.265278z" fill="#CDB288" p-id="1510"></path></svg>