<?xml version="1.0" standalone="no"?><!DOCTYPE svg PUBLIC "-//W3C//DTD SVG 1.1//EN" "http://www.w3.org/Graphics/SVG/1.1/DTD/svg11.dtd"><svg t="1587374898574" class="icon" viewBox="0 0 1028 1024" version="1.1" xmlns="http://www.w3.org/2000/svg" p-id="1132" xmlns:xlink="http://www.w3.org/1999/xlink" width="200.78125" height="200"><defs><style type="text/css"></style></defs><path d="M995.635344 953.370467H25.081948a25.081948 25.081948 0 0 1 0-50.163895h970.553396a25.081948 25.081948 0 0 1 0 50.163895zM284.826287 240.663594H25.081948a25.081948 25.081948 0 0 1 0-50.163895h259.744339a25.081948 25.081948 0 0 1 0 50.163895zM284.826287 597.042677H25.081948a25.081948 25.081948 0 0 1 0-50.163895h259.744339a25.081948 25.081948 0 0 1 0 50.163895zM950.703266 805.853737a25.030655 25.030655 0 0 1-17.798437-7.386095l-152.286917-153.364056a25.081948 25.081948 0 0 1 35.596875-35.340412l152.286916 153.312763a25.081948 25.081948 0 0 1-17.798437 42.7778z" p-id="1133"></path><path d="M640.230815 706.859547a284.928872 284.928872 0 1 1 181.369666-65.295131 25.081948 25.081948 0 0 1-31.955119-38.674414A234.559808 234.559808 0 1 0 640.230815 656.541775a25.081948 25.081948 0 1 1 0 50.163895z" p-id="1134"></path><path d="M462.195151 441.114005a25.081948 25.081948 0 0 1-25.081947-25.081947c0-116.43358 92.326187-204.246043 214.966139-204.246043a25.081948 25.081948 0 1 1 0 50.163895C558.111801 262.001202 487.277099 328.270888 487.277099 416.08335A25.030655 25.030655 0 0 1 462.195151 441.114005z" fill="#CDB288" p-id="1135"></path></svg>