<?xml version="1.0" standalone="no"?><!DOCTYPE svg PUBLIC "-//W3C//DTD SVG 1.1//EN" "http://www.w3.org/Graphics/SVG/1.1/DTD/svg11.dtd"><svg t="1587374908902" class="icon" viewBox="0 0 1026 1024" version="1.1" xmlns="http://www.w3.org/2000/svg" p-id="1382" xmlns:xlink="http://www.w3.org/1999/xlink" width="200.390625" height="200"><defs><style type="text/css"></style></defs><path d="M149.319474 50.404278h200.542502A74.762081 74.762081 0 0 1 424.7264 125.21753v223.262806a74.864425 74.864425 0 0 1-75.01794 74.710909H149.319474a74.710909 74.710909 0 0 1-75.01794-74.710909V125.21753A74.813253 74.813253 0 0 1 149.319474 50.404278zM24.204288 348.480336A124.65464 124.65464 0 0 0 149.319474 473.186148h200.542502a124.808156 124.808156 0 0 0 125.115187-124.705812V125.21753A124.705812 124.705812 0 0 0 349.861976 0.665234H149.319474A124.756984 124.756984 0 0 0 24.204288 125.21753z m0 0M675.468492 50.404278h200.49133A74.710909 74.710909 0 0 1 950.721903 125.21753v223.262806a74.813253 74.813253 0 0 1-75.01794 74.710909H675.468492a74.762081 74.762081 0 0 1-75.069112-74.710909V125.21753A74.864425 74.864425 0 0 1 675.468492 50.404278z m-125.371046 298.076058A124.65464 124.65464 0 0 0 675.468492 473.186148h200.49133a124.756984 124.756984 0 0 0 125.115187-124.449953V125.21753a124.65464 124.65464 0 0 0-125.371046-124.552296H675.468492A124.756984 124.756984 0 0 0 550.097446 125.21753z m0 0M149.319474 597.175553h200.542502A74.813253 74.813253 0 0 1 424.7264 671.937634v223.365149a74.864425 74.864425 0 0 1-75.01794 74.710909H149.319474a74.710909 74.710909 0 0 1-75.01794-74.710909v-223.365149a74.864425 74.864425 0 0 1 75.01794-74.762081zM24.204288 895.302783a124.65464 124.65464 0 0 0 125.115186 124.449953h200.542502a124.808156 124.808156 0 0 0 125.115187-124.449953v-223.365149a124.705812 124.705812 0 0 0-125.115187-124.449952H149.319474a124.756984 124.756984 0 0 0-125.115186 124.449952z m0 0" p-id="1383"></path><path d="M873.452401 970.013692h-198.342112a74.710909 74.710909 0 0 1-74.966768-74.710909v-223.365149A74.915596 74.915596 0 0 1 675.468492 597.175553h200.49133a74.710909 74.710909 0 0 1 75.01794 74.659738v223.569836a25.074209 25.074209 0 0 0 50.097247 0v-223.569836a124.603468 124.603468 0 0 0-125.115187-124.347609H675.468492a124.756984 124.756984 0 0 0-125.115186 124.449952v223.365149a124.603468 124.603468 0 0 0 125.012843 124.449953H875.038729a24.869522 24.869522 0 1 0 0.56289-49.739044z m0 0" p-id="1384"></path><path d="M180.431962 951.18245h-14.942181a69.644895 69.644895 0 0 1-69.542552-69.593724V851.857878a22.05507 22.05507 0 0 1 44.058968 0v29.628504a25.585928 25.585928 0 0 0 25.585927 25.585928h14.942182a22.05507 22.05507 0 0 1 0 44.11014z" fill="#CDB288" p-id="1385"></path></svg>