<?xml version="1.0" standalone="no"?><!DOCTYPE svg PUBLIC "-//W3C//DTD SVG 1.1//EN" "http://www.w3.org/Graphics/SVG/1.1/DTD/svg11.dtd"><svg t="1587374920263" class="icon" viewBox="0 0 1029 1024" version="1.1" xmlns="http://www.w3.org/2000/svg" p-id="1632" xmlns:xlink="http://www.w3.org/1999/xlink" width="200.9765625" height="200"><defs><style type="text/css"></style></defs><path d="M525.673377 609.84083A108.758249 108.758249 0 0 1 416.762019 501.184653a24.548436 24.548436 0 1 1 49.045836 0A59.661376 59.661376 0 0 0 525.673377 560.743957a24.548436 24.548436 0 0 1 0 49.096873z" fill="#CDB288" p-id="1633"></path><path d="M527.153428 1023.387565a24.4974 24.4974 0 0 1-23.476675-17.505434 131.928707 131.928707 0 0 0-32.867345-54.966041 131.06109 131.06109 0 0 0-185.006407-0.306218l-1.531087 1.63316a24.395328 24.395328 0 0 1-17.403362 7.247148 24.4974 24.4974 0 0 1-17.352325-7.145075l-171.379728-171.175583a24.599473 24.599473 0 0 1 0-34.755687l1.786269-1.63316a130.448655 130.448655 0 0 0 38.022006-92.324576 130.193474 130.193474 0 0 0-38.37926-92.681831A130.550728 130.550728 0 0 0 19.59792 525.682053a24.599473 24.599473 0 0 1-17.607506-30.111387l59.712412-222.824269a24.548436 24.548436 0 0 1 31.948693-16.73989 131.724562 131.724562 0 0 0 136.879223-30.62175 130.346583 130.346583 0 0 0 31.183149-135.041918 24.548436 24.548436 0 0 1 16.841963-31.591439L494.643337 0.825256a24.548436 24.548436 0 0 1 30.162424 17.913724 130.6528 130.6528 0 0 0 34.449469 61.2435 131.265235 131.265235 0 0 0 185.36366 0l1.020725-1.173834 2.04145-2.296631a24.803618 24.803618 0 0 1 17.505434-7.808546 25.518125 25.518125 0 0 1 17.760615 7.196111L954.377879 247.585526a24.599473 24.599473 0 0 1-0.612435 35.266049c-0.765544 0.714508-1.531088 1.429015-2.347668 2.092486l-1.122797 1.020725a131.112127 131.112127 0 0 0 0 185.363661 131.673525 131.673525 0 0 0 56.139875 33.224599 24.4974 24.4974 0 0 1 16.944035 29.907242l-58.79376 219.455876a24.4974 24.4974 0 0 1-29.652062 17.454398 130.091402 130.091402 0 0 0-124.52845 34.347396 131.520417 131.520417 0 0 0-33.837034 126.314719 24.599473 24.599473 0 0 1-17.403361 30.009315l-225.988516 60.528993a24.548436 24.548436 0 0 1-6.022278 0.81658z m-149.02585-159.896572a178.933093 178.933093 0 0 1 127.590625 52.771483 180.770398 180.770398 0 0 1 36.7461 53.128736l182.25045-48.892727a180.770398 180.770398 0 0 1 51.03625-149.536213A178.626876 178.626876 0 0 1 923.347838 719.619804l47.106459-175.972991A180.106927 180.106927 0 0 1 902.933338 265.397177l-137.797875-137.797875a180.413144 180.413144 0 0 1-240.533847-12.810099A178.626876 178.626876 0 0 1 484.844377 54.26021l-169.950713 45.575372A178.626876 178.626876 0 0 1 265.388501 260.293552a181.178688 181.178688 0 0 1-162.703566 48.9948l-47.310604 176.636462a179.596564 179.596564 0 0 1 58.946869 39.144804 178.933093 178.933093 0 0 1 52.771483 127.590626 178.626876 178.626876 0 0 1-37.817861 110.442445l138.359274 138.206166a178.626876 178.626876 0 0 1 110.493482-37.817862zM285.803001 950.865053z" p-id="1634"></path><path d="M512.863278 686.344169a174.441903 174.441903 0 1 1 168.929988-130.142438 24.548436 24.548436 0 1 1-47.463712-12.452845 125.651248 125.651248 0 1 0-121.466276 93.549446 126.518864 126.518864 0 0 0 30.62175-3.776682 24.548436 24.548436 0 1 1 11.891447 47.616821 175.156411 175.156411 0 0 1-42.513197 5.205698z" p-id="1635"></path></svg>